<svg width="141" height="141" viewBox="0 0 141 141" fill="none" xmlns="http://www.w3.org/2000/svg">
<path d="M71 111C72.1046 111 73 111.895 73 113V139C73 140.105 72.1046 141 71 141C69.9643 141 69.113 140.213 69.0107 139.204L69 139V113C69 111.895 69.8954 111 71 111ZM35.7988 103.414C36.5798 102.633 37.8459 102.633 38.627 103.414C39.408 104.195 39.408 105.461 38.627 106.242L20.2422 124.627C19.4611 125.408 18.1951 125.408 17.4141 124.627C16.6821 123.895 16.6367 122.737 17.2773 121.951L17.4141 121.799L35.7988 103.414ZM103.449 102.378C104.2 101.664 105.36 101.649 106.129 102.31L106.277 102.449L124.189 121.296C124.95 122.097 124.918 123.362 124.117 124.123C123.317 124.884 122.051 124.851 121.29 124.051L103.378 105.205C102.617 104.405 102.649 103.139 103.449 102.378ZM70.5 39C87.897 39 102 53.103 102 70.5C102 87.897 87.897 102 70.5 102C53.103 102 39 87.897 39 70.5C39 53.103 53.103 39 70.5 39ZM70.5 43C55.3122 43 43 55.3122 43 70.5C43 85.6878 55.3122 98 70.5 98C85.6878 98 98 85.6878 98 70.5C98 55.3122 85.6878 43 70.5 43ZM28 69C29.1046 69 30 69.8954 30 71C30 72.1046 29.1046 73 28 73H2C0.895431 73 6.60431e-07 72.1046 0 71C4.52697e-08 69.9643 0.787223 69.113 1.7959 69.0107L2 69H28ZM139 69C140.105 69 141 69.8954 141 71C141 72.1046 140.105 73 139 73H113C111.895 73 111 72.1046 111 71C111 69.9643 111.787 69.113 112.796 69.0107L113 69H139ZM123.799 16.4141C124.58 15.6331 125.846 15.6333 126.627 16.4141C127.408 17.1951 127.408 18.4611 126.627 19.2422L108.242 37.627C107.461 38.408 106.195 38.408 105.414 37.627C104.682 36.8947 104.637 35.7366 105.277 34.9512L105.414 34.7988L123.799 16.4141ZM17.373 16.4541C18.0838 15.7013 19.2403 15.6226 20.0439 16.2402L20.2002 16.373L39.1074 34.2188C39.9107 34.9769 39.9476 36.2436 39.1895 37.0469C38.4312 37.8499 37.1655 37.886 36.3623 37.1279L17.4541 19.2812C16.6512 18.523 16.615 17.2572 17.373 16.4541ZM71 0C72.1046 0 73 0.895431 73 2V28C73 29.1046 72.1046 30 71 30C69.9643 30 69.113 29.2128 69.0107 28.2041L69 28V2C69 0.895431 69.8954 0 71 0Z" fill="black"/>
</svg>
